# xmcd
# Track frame offsets:
# 150
# 22147
# 44847
# 60942
# 81505
# 99588
# 118728
# 139957
# 157440
# 177845
#
# Disc length: 2688 seconds
# Revision: 0
# Processed by: cddbd v1.4PL0 Copyright (c) Steve Scherf et al.
# Submitted via: VisiTrax 2.9.5.181 - For more info visit www.synapsa.com
#
DISCID=950a7e0a
DTITLE=Peggy Scott-Adams - Contagious
DYEAR=1997
DGENRE=
TTITLE0=Spousal Abuse
TTITLE1=I'm In Love
TTITLE2=What Cha Do'in  To Me
TTITLE3=Leave Me Alone
TTITLE4=It's So Hard Being A Woman
TTITLE5=I'm So Lonely
TTITLE6=Pam
TTITLE7=When You Want Me
TTITLE8=Girls Don't Like Cheap Guys
TTITLE9=All Of Our Friends
EXTD=Miss Butch Records - MB - 4005\nDistributed by: Mardi Gras Records\n1-
EXTD=800-895-0441
EXTT0=
EXTT1=
EXTT2=
EXTT3=
EXTT4=
EXTT5=
EXTT6=
EXTT7=
EXTT8=
EXTT9=
PLAYORDER=
